<?xml version="1.0" encoding="UTF-8"?>
<svg width="179px" height="124px" viewBox="0 0 179 124" version="1.1" xmlns="http://www.w3.org/2000/svg" xmlns:xlink="http://www.w3.org/1999/xlink">
    <!-- Generator: Sketch 52.6 (67491) - http://www.bohemiancoding.com/sketch -->
    <title>undraw_not_found_60pq</title>
    <desc>Created with Sketch.</desc>
    <g id="Page-1" stroke="none" stroke-width="1" fill="none" fill-rule="evenodd">
        <g id="PNM_2_2-Copy" transform="translate(-547.000000, -233.000000)">
            <g id="undraw_not_found_60pq" transform="translate(547.000000, 233.000000)">
                <circle id="Oval" fill="#C7A476" cx="34" cy="17" r="10"></circle>
                <path d="M83,54.5871949 C83,78.611582 68.6731109,87 50.9999984,87 C33.3268859,87 19,78.611582 19,54.5871949 C19,30.5628078 50.9999984,0 50.9999984,0 C50.9999984,0 83,30.5628078 83,54.5871949 Z" id="Path" fill="#E1DEB0"></path>
                <polygon id="Path" fill="#3F3D56" points="50.943727 83.3930271 51.2736201 63.2703739 65 38.3757495 51.3253365 60.1136857 51.4735796 51.0657124 60.9338346 33.0547891 51.5127685 48.6713678 51.5127685 48.6713678 51.7793812 32.3981674 61.9097014 18.0591669 51.8214611 29.8391896 51.9880137 0 50.940836 39.5017507 51.026923 37.8721379 40.7274804 22.2436177 50.8618158 41.0003257 49.9021706 59.1746084 49.873582 58.6923322 38 42.2455824 49.8376054 60.3964598 49.7176296 62.6693198 49.6961079 62.7035521 49.7059051 62.8901575 47.2712169 109 50.5242135 109 50.914496 85.1832925 62.7228703 67.0768373"></polygon>
                <path d="M179,64.5481746 C179,84.1542797 167.135546,91 152.5,91 C137.864454,91 126,84.1542797 126,64.5481746 C126,44.9420696 152.5,20 152.5,20 C152.5,20 179,44.9420649 179,64.5481746 Z" id="Path" fill="#E1DEB0"></path>
                <polygon id="Path" fill="#3F3D56" points="151.546826 88.091588 151.815421 71.6612244 163 51.3344267 151.857629 69.0836664 151.978496 61.6959587 159.68685 46.9896318 152.010472 59.7408328 152.010472 59.7408328 152.227746 46.4536001 160.481923 34.7455565 152.2618 44.3642678 152.397696 20 151.544428 52.2537011 151.614614 50.9232308 143.222303 38.1621827 151.479997 53.4774416 150.698034 68.317022 150.674692 67.923138 141 54.4940753 150.645434 69.3145968 150.547589 71.1704576 150.530162 71.1984107 150.538156 71.3507231 148.554231 109 151.204847 109 151.522844 89.553406 161.144617 74.7692552"></polygon>
                <ellipse id="Oval" fill="#3F3D56" cx="88.5" cy="108.5" rx="88.5" ry="4.5"></ellipse>
                <ellipse id="Oval" fill="#3F3D56" cx="142" cy="116" rx="15" ry="1"></ellipse>
                <ellipse id="Oval" fill="#3F3D56" cx="88" cy="123" rx="15" ry="1"></ellipse>
                <ellipse id="Oval" fill="#3F3D56" cx="46" cy="116.5" rx="35" ry="1.5"></ellipse>
                <polygon id="Rectangle" fill="#2F2E41" transform="translate(19.177156, 103.606430) rotate(0.675090) translate(-19.177156, -103.606430) " points="17.2610847 100.179735 21.0933763 100.179652 21.0932265 107.033124 17.2609349 107.033208"></polygon>
                <ellipse id="Oval" fill="#2F2E41" transform="translate(12.749052, 107.037496) rotate(-89.324910) translate(-12.749052, -107.037496) " cx="12.7490517" cy="107.037496" rx="1.19537306" ry="3.19357634"></ellipse>
                <ellipse id="Oval" fill="#2F2E41" transform="translate(20.414986, 106.968263) rotate(-89.324910) translate(-20.414986, -106.968263) " cx="20.4149859" cy="106.968263" rx="1.19537306" ry="3.19357634"></ellipse>
                <path d="M35,97.0780104 C35,105.914592 29.8515213,109 23.5000008,109 C23.3528622,109 23.205958,108.998331 23.059288,108.994994 C22.7650041,108.988559 22.4735256,108.974265 22.1855539,108.954241 C16.4534262,108.54033 12,105.296222 12,97.0780056 C12,88.5731285 22.6521978,77.8414093 23.4523512,77.0471785 L23.4537539,77.0457522 C23.4845883,77.0150127 23.5000008,77 23.5000008,77 C23.5000008,77 35,88.2414301 35,97.0780104 Z" id="Path" fill="#5E86CC"></path>
                <path d="M22.7939876,107.65296 L27.1563022,101.655644 L22.783083,108.311466 L22.7714625,109 C22.4662472,108.993564 22.1639416,108.979267 21.865273,108.959241 L22.3354479,100.116984 L22.3318109,100.048343 L22.3398026,100.035474 L22.3841303,99.2003688 L18,92.5280991 L22.3979331,98.574039 L22.4081167,98.7513573 L22.7634594,92.0705121 L19.0101106,85.1758789 L22.8092419,90.8979313 L23.1791245,77.0471779 L23.1805793,77 L23.1805793,77.0457593 L23.1188134,87.9679226 L26.8554596,83.6379534 L23.1035542,88.908844 L23.0047265,94.8904326 L26.4935719,89.1497882 L22.9901996,95.7705794 L22.9349706,99.0959789 L28,91.1059874 L22.916076,100.256412 L22.7939876,107.65296 Z" id="Path" fill="#3F3D56"></path>
                <polygon id="Rectangle" fill="#2F2E41" transform="translate(114.022411, 103.962596) rotate(-17.083450) translate(-114.022411, -103.962596) " points="112.104785 100.534315 115.936465 100.536308 115.940037 107.390876 112.108357 107.388883"></polygon>
                <polygon id="Rectangle" fill="#2F2E41" transform="translate(121.348612, 101.715957) rotate(-17.083183) translate(-121.348612, -101.715957) " points="119.430985 98.2876736 123.262668 98.2896672 123.26624 105.144241 119.434557 105.142247"></polygon>
                <ellipse id="Oval" fill="#2F2E41" transform="translate(116.275453, 106.939743) rotate(-17.083450) translate(-116.275453, -106.939743) " cx="116.275453" cy="106.939743" rx="3.19306665" ry="1.1955654"></ellipse>
                <ellipse id="Oval" fill="#2F2E41" transform="translate(123.554951, 104.539983) rotate(-17.083450) translate(-123.554951, -104.539983) " cx="123.554951" cy="104.539983" rx="3.19306665" ry="1.1955654"></ellipse>
                <path d="M91,96.1956945 C91,104.203848 86.2992162,107 80.5000008,107 C80.3656577,107 80.2315279,106.998488 80.0976113,106.995463 C79.8289174,106.989631 79.562784,106.976677 79.2998538,106.958536 C74.0661712,106.583429 70,103.643456 70,96.1956977 C70,88.4881507 79.7259211,78.7625288 80.4564945,78.042758 L80.4577756,78.0414639 C80.4859299,78.0136064 80.500007,78 80.500007,78 C80.500007,78 91,88.1875411 91,96.1956945 Z" id="Path" fill="#5E86CC"></path>
                <path d="M80.3145909,105.779247 L84.2406812,100.344181 L80.3047775,106.376016 L80.2943197,107 C80.0196256,106.994167 79.7475492,106.981211 79.4787476,106.963067 L79.9019062,98.9497737 L79.8986329,98.8875674 L79.9058287,98.8759058 L79.9457236,98.119091 L76,92.0723476 L79.9581466,97.5514791 L79.9673108,97.7121722 L80.2871223,91.6576582 L76.9091025,85.409396 L80.328322,90.5950047 L80.661217,78.0427647 L80.6625266,78 L80.6625266,78.0414704 L80.606937,87.9396748 L83.9699144,84.0156434 L80.5931963,88.7923862 L80.5042503,94.213199 L83.6442137,89.0107484 L80.4911732,95.010841 L80.4414665,98.0244887 L85,90.7835612 L80.4244573,99.0761271 L80.3145909,105.779247 Z" id="Path" fill="#3F3D56"></path>
                <path d="M133,99.0780104 C133,107.914592 127.851521,111 121.500001,111 C121.352863,111 121.205959,110.998331 121.059288,110.994994 C120.765004,110.988559 120.473526,110.974265 120.185554,110.954241 C114.453426,110.54033 110,107.296222 110,99.0780056 C110,90.5731285 120.652198,79.8414093 121.452351,79.0471785 L121.453754,79.0457522 C121.484588,79.0150127 121.500001,79 121.500001,79 C121.500001,79 133,90.2414301 133,99.0780104 Z" id="Path" fill="#5E86CC"></path>
                <path d="M120.793982,109.65296 L125.156301,103.655643 L120.783077,110.311466 L120.771456,111 C120.466241,110.993564 120.163935,110.979267 119.865266,110.959241 L120.335441,102.116983 L120.331804,102.048342 L120.339796,102.035472 L120.384124,101.200367 L116,94.5281015 L120.397938,100.574042 L120.408122,100.751361 L120.763465,94.0705144 L117.010112,87.1758801 L120.809247,92.8979334 L121.17913,79.0471779 L121.180585,79 L121.180585,79.0457594 L121.118819,89.9679243 L124.85547,85.6379544 L121.10356,90.9088458 L121.004724,96.8904352 L124.49357,91.1497852 L120.990194,97.7705775 L120.934965,101.095977 L126,93.1059847 L120.91607,102.256411 L120.793982,109.65296 Z" id="Path" fill="#3F3D56"></path>
            </g>
        </g>
    </g>
</svg>