<?xml version="1.0" encoding="UTF-8"?>
<svg width="240px" height="240px" viewBox="0 0 240 240" version="1.1" xmlns="http://www.w3.org/2000/svg" xmlns:xlink="http://www.w3.org/1999/xlink">
    <!-- Generator: Sketch 52.6 (67491) - http://www.bohemiancoding.com/sketch -->
    <title>icon_errorpage</title>
    <desc>Created with Sketch.</desc>
    <g id="Page-1" stroke="none" stroke-width="1" fill="none" fill-rule="evenodd">
        <g id="PNM-error" transform="translate(-520.000000, -201.000000)">
            <g id="Group-2" transform="translate(520.000000, 201.000000)">
                <rect id="Rectangle" fill="#435070" x="0" y="0" width="240" height="240" rx="118"></rect>
                <g id="undraw_coming_home_52ir" transform="translate(3.000000, 39.000000)">
                    <path d="M17.4438031,158 L17,157.89984 C21.9484757,135.848232 34.3844146,115.823443 52.0169393,101.514039 C79.1176421,79.5551919 115.600467,73.1460183 148.539546,84.5572889 C181.478625,95.9685595 206.220832,123.588265 214,157.630743 L213.55664,157.731794 C203.081497,111.644069 162.77179,79.4557593 115.530477,79.4557593 C68.9082386,79.4557593 27.6568371,112.488312 17.4438031,158 Z" id="Path" fill="#3F3D56"></path>
                    <circle id="Oval" fill="#FF6584" cx="81.5" cy="15.5" r="12.5"></circle>
                    <path d="M28.1035411,154.764175 C28.4464227,156.144885 29.6208227,157 29.6208227,157 C29.6208227,157 30.2393294,155.616536 29.8964579,154.235825 C29.5535864,152.855115 28.3791782,152 28.3791782,152 C28.3791782,152 27.7606715,153.383471 28.1035411,154.764175 Z" id="Path" fill="#3F3D56"></path>
                    <path d="M28.7605093,154.197452 C29.8650747,155.302021 30,157 30,157 C30,157 28.3440585,156.90712 27.2394907,155.802551 C26.1349229,154.697981 26,153 26,153 C26,153 27.6559415,153.092882 28.7605093,154.197452 Z" id="Path" fill="#009688"></path>
                    <path d="M57.1035411,154.764175 C57.4464126,156.144885 58.6208227,157 58.6208227,157 C58.6208227,157 59.2393294,155.616536 58.8964579,154.235825 C58.5535864,152.855115 57.3791782,152 57.3791782,152 C57.3791782,152 56.7606715,153.383471 57.1035411,154.764175 Z" id="Path" fill="#3F3D56"></path>
                    <path d="M57.7605093,154.197452 C58.8650747,155.302021 59,157 59,157 C59,157 57.3440585,156.90712 56.2394907,155.802551 C55.1349229,154.697981 55,153 55,153 C55,153 56.6559415,153.092882 57.7605093,154.197452 Z" id="Path" fill="#009688"></path>
                    <polygon id="Path" fill="#3F3D56" points="62.6464899 41.8114489 58 38.1131307 84.0202526 15 150 15 150 35.3396184 107.252475 64"></polygon>
                    <polygon id="Path" fill="#CCCCCC" points="162.727839 28.0218438 162.727839 15.4637425 153.968819 15.4637425 153.968819 18.5392191 150.699825 15 129.328871 38.2141765 120.966334 43.7856789 108 138.458028 127.554821 158 173 158 173 39.1427981"></polygon>
                    <rect id="Rectangle" fill="#F2F2F2" x="58" y="38" width="71" height="120"></rect>
                    <rect id="Rectangle" fill="#CCCCCC" x="86" y="129" width="13" height="29"></rect>
                    <polygon id="Path" fill="#3F3D56" points="72 137 72 132 66 132 66 137 71.5000816 137"></polygon>
                    <polygon id="Path" fill="#3F3D56" points="71.5000816 140 66 140 66 145 72 145 72 140"></polygon>
                    <rect id="Rectangle" fill="#3F3D56" x="75" y="132" width="6" height="5"></rect>
                    <rect id="Rectangle" fill="#3F3D56" x="75" y="140" width="6" height="5"></rect>
                    <polygon id="Path" fill="#3F3D56" points="110 137 110 132 104 132 104 137 109.500082 137"></polygon>
                    <polygon id="Path" fill="#3F3D56" points="109.500082 140 104 140 104 145 110 145 110 140"></polygon>
                    <rect id="Rectangle" fill="#3F3D56" x="113" y="132" width="6" height="5"></rect>
                    <rect id="Rectangle" fill="#3F3D56" x="113" y="140" width="6" height="5"></rect>
                    <polygon id="Path" fill="#3F3D56" points="149 44 149 39 143 39 143 44 148.500102 44"></polygon>
                    <polygon id="Path" fill="#3F3D56" points="148.500102 47 143 47 143 52 149 52 149 47"></polygon>
                    <rect id="Rectangle" fill="#3F3D56" x="153" y="39" width="6" height="5"></rect>
                    <rect id="Rectangle" fill="#3F3D56" x="153" y="47" width="6" height="5"></rect>
                    <polygon id="Path" fill="#3F3D56" points="149 70 149 65 143 65 143 70 148.500102 70"></polygon>
                    <polygon id="Path" fill="#3F3D56" points="148.500102 73 143 73 143 78 149 78 149 73"></polygon>
                    <rect id="Rectangle" fill="#3F3D56" x="153" y="65" width="6" height="5"></rect>
                    <rect id="Rectangle" fill="#3F3D56" x="153" y="73" width="6" height="5"></rect>
                    <polygon id="Path" fill="#3F3D56" points="149 96 149 91 143 91 143 96 148.500102 96"></polygon>
                    <polygon id="Path" fill="#3F3D56" points="148.500102 99 143 99 143 104 149 104 149 99"></polygon>
                    <rect id="Rectangle" fill="#3F3D56" x="153" y="91" width="6" height="5"></rect>
                    <rect id="Rectangle" fill="#3F3D56" x="153" y="99" width="6" height="5"></rect>
                    <polygon id="Path" fill="#3F3D56" points="149 122 149 117 143 117 143 122 148.500102 122"></polygon>
                    <polygon id="Path" fill="#3F3D56" points="148.500102 125 143 125 143 130 149 130 149 125"></polygon>
                    <rect id="Rectangle" fill="#3F3D56" x="153" y="117" width="6" height="5"></rect>
                    <rect id="Rectangle" fill="#3F3D56" x="153" y="125" width="6" height="5"></rect>
                    <rect id="Rectangle" fill="#3F3D56" x="66" y="44" width="54" height="11"></rect>
                    <rect id="Rectangle" fill="#3F3D56" x="66" y="66" width="54" height="11"></rect>
                    <rect id="Rectangle" fill="#3F3D56" x="66" y="88" width="54" height="11"></rect>
                    <rect id="Rectangle" fill="#3F3D56" x="66" y="111" width="54" height="11"></rect>
                    <rect id="Rectangle" fill="#3F3D56" x="30" y="105" width="1" height="53"></rect>
                    <path d="M42.9995856,111.439689 C43.0842988,129.941228 30.1533785,145 30.1533785,145 C30.1533785,145 17.0851139,130.06185 17.0004143,111.560311 C16.9157146,93.0587723 29.8466214,78 29.8466214,78 C29.8466214,78 42.9148769,92.9381501 42.9995856,111.439689 Z" id="Path" fill="#009688"></path>
                    <path d="M42.9995856,111.439689 C43.0842988,129.941228 30.1533785,145 30.1533785,145 C30.1533785,145 17.0851139,130.06185 17.0004143,111.560311 C16.9157146,93.0587723 29.8466214,78 29.8466214,78 C29.8466214,78 42.9148769,92.9381501 42.9995856,111.439689 Z" id="Path" fill="#000000" opacity="0.1"></path>
                    <rect id="Rectangle" fill="#3F3D56" x="12" y="105" width="1" height="53"></rect>
                    <path d="M25.9995856,111.439689 C26.0842988,129.941228 13.1533785,145 13.1533785,145 C13.1533785,145 0.0851139476,130.06185 0.00041428831,111.560311 C-0.0842853709,93.0587723 12.8466237,78 12.8466237,78 C12.8466237,78 25.9148791,92.9381501 25.9995856,111.439689 Z" id="Path" fill="#009688"></path>
                    <path d="M201.03463,37.787528 C190.541222,37.8380499 182,38 182,38 C182,38 192.152582,23.9519098 200.996553,29.156626 C209.840525,34.3613422 220,37.8170396 220,37.8170396 C220,37.8170396 211.52804,37.7370061 201.03463,37.787528 Z" id="Path" fill="#F2F2F2"></path>
                    <path d="M26.0346298,63.787528 C15.5412216,63.8380499 7,64 7,64 C7,64 17.1525818,49.9519098 25.9965533,55.156626 C34.8405249,60.3613422 45,63.8170514 45,63.8170514 C45,63.8170514 36.5280403,63.7370061 26.0346298,63.787528 Z" id="Path" fill="#F2F2F2"></path>
                    <path d="M64.0346298,9.78752799 C53.5412216,9.8380499 45,10 45,10 C45,10 55.1525818,-4.04809024 63.9965533,1.15662599 C72.8405249,6.36134223 83,9.81705141 83,9.81705141 C83,9.81705141 74.5280403,9.73700608 64.0346298,9.78752799 Z" id="Path" fill="#F2F2F2"></path>
                    <rect id="Rectangle" fill="#3F3D56" x="222" y="105" width="1" height="53"></rect>
                    <path d="M234.999586,111.439689 C235.084299,129.941228 222.153378,145 222.153378,145 C222.153378,145 209.085114,130.06185 209.000414,111.560311 C208.915715,93.0587723 221.846624,78 221.846624,78 C221.846624,78 234.914879,92.9381501 234.999586,111.439689 Z" id="Path" fill="#009688"></path>
                    <polygon id="Path" fill="#3F3D56" points="174.000076 124.272706 187.533435 124.272706 187.533435 121 195.000076 121 195.000076 124.272706 209 124.272706 209 138.766284 195.000076 138.766284 195.000076 157 187.533435 157 187.533435 138.766284 174.000076 138.766284 167 130.818119"></polygon>
                </g>
            </g>
        </g>
    </g>
</svg>